%TF.GenerationSoftware,KiCad,Pcbnew,8.0.4*%
%TF.CreationDate,2024-08-25T22:16:48+02:00*%
%TF.ProjectId,schemat,73636865-6d61-4742-9e6b-696361645f70,rev?*%
%TF.SameCoordinates,Original*%
%TF.FileFunction,Legend,Bot*%
%TF.FilePolarity,Positive*%
%FSLAX46Y46*%
G04 Gerber Fmt 4.6, Leading zero omitted, Abs format (unit mm)*
G04 Created by KiCad (PCBNEW 8.0.4) date 2024-08-25 22:16:48*
%MOMM*%
%LPD*%
G01*
G04 APERTURE LIST*
%ADD10C,0.127000*%
%ADD11C,0.152400*%
%ADD12C,0.120000*%
G04 APERTURE END LIST*
D10*
%TO.C,CZ9*%
X121761816Y-44430000D02*
X121761816Y-47830000D01*
X121761816Y-47830000D02*
X123961816Y-47830000D01*
X122211816Y-44830000D02*
X124011816Y-44830000D01*
X122211816Y-45930000D02*
X122211816Y-44830000D01*
X122211816Y-46330000D02*
X124011816Y-46330000D01*
X122211816Y-47430000D02*
X122211816Y-46330000D01*
X123961816Y-47830000D02*
X124461816Y-47330000D01*
X124011816Y-44830000D02*
X124011816Y-45930000D01*
X124011816Y-45930000D02*
X122211816Y-45930000D01*
X124011816Y-46330000D02*
X124011816Y-47430000D01*
X124011816Y-47430000D02*
X122211816Y-47430000D01*
X124461816Y-44430000D02*
X121761816Y-44430000D01*
X124461816Y-47330000D02*
X124461816Y-44430000D01*
D11*
%TO.C,C7*%
X141124400Y-123518800D02*
X141124400Y-127481200D01*
X144375600Y-127481200D02*
X144375600Y-123518800D01*
D10*
%TO.C,CZ2*%
X184252720Y-48830000D02*
X184252720Y-52230000D01*
X184252720Y-52230000D02*
X186452720Y-52230000D01*
X184702720Y-49230000D02*
X186502720Y-49230000D01*
X184702720Y-50330000D02*
X184702720Y-49230000D01*
X184702720Y-50730000D02*
X186502720Y-50730000D01*
X184702720Y-51830000D02*
X184702720Y-50730000D01*
X186452720Y-52230000D02*
X186952720Y-51730000D01*
X186502720Y-49230000D02*
X186502720Y-50330000D01*
X186502720Y-50330000D02*
X184702720Y-50330000D01*
X186502720Y-50730000D02*
X186502720Y-51830000D01*
X186502720Y-51830000D02*
X184702720Y-51830000D01*
X186952720Y-48830000D02*
X184252720Y-48830000D01*
X186952720Y-51730000D02*
X186952720Y-48830000D01*
%TO.C,CZ6*%
X148543632Y-42630000D02*
X148543632Y-46030000D01*
X148543632Y-46030000D02*
X150743632Y-46030000D01*
X148993632Y-43030000D02*
X150793632Y-43030000D01*
X148993632Y-44130000D02*
X148993632Y-43030000D01*
X148993632Y-44530000D02*
X150793632Y-44530000D01*
X148993632Y-45630000D02*
X148993632Y-44530000D01*
X150743632Y-46030000D02*
X151243632Y-45530000D01*
X150793632Y-43030000D02*
X150793632Y-44130000D01*
X150793632Y-44130000D02*
X148993632Y-44130000D01*
X150793632Y-44530000D02*
X150793632Y-45630000D01*
X150793632Y-45630000D02*
X148993632Y-45630000D01*
X151243632Y-42630000D02*
X148543632Y-42630000D01*
X151243632Y-45530000D02*
X151243632Y-42630000D01*
D12*
%TO.C,C6*%
X138990000Y-124603733D02*
X138990000Y-124896267D01*
X140010000Y-124603733D02*
X140010000Y-124896267D01*
%TO.C,U1*%
X145340000Y-127410000D02*
X145340000Y-123650000D01*
X146600000Y-127410000D02*
X145340000Y-127410000D01*
X150900000Y-127410000D02*
X152160000Y-127410000D01*
X152160000Y-127410000D02*
X152160000Y-123650000D01*
X145440000Y-122370000D02*
X145110000Y-122610000D01*
X145110000Y-122130000D01*
X145440000Y-122370000D01*
G36*
X145440000Y-122370000D02*
G01*
X145110000Y-122610000D01*
X145110000Y-122130000D01*
X145440000Y-122370000D01*
G37*
D10*
%TO.C,CZ11*%
X103907272Y-48830000D02*
X103907272Y-52230000D01*
X103907272Y-52230000D02*
X106107272Y-52230000D01*
X104357272Y-49230000D02*
X106157272Y-49230000D01*
X104357272Y-50330000D02*
X104357272Y-49230000D01*
X104357272Y-50730000D02*
X106157272Y-50730000D01*
X104357272Y-51830000D02*
X104357272Y-50730000D01*
X106107272Y-52230000D02*
X106607272Y-51730000D01*
X106157272Y-49230000D02*
X106157272Y-50330000D01*
X106157272Y-50330000D02*
X104357272Y-50330000D01*
X106157272Y-50730000D02*
X106157272Y-51830000D01*
X106157272Y-51830000D02*
X104357272Y-51830000D01*
X106607272Y-48830000D02*
X103907272Y-48830000D01*
X106607272Y-51730000D02*
X106607272Y-48830000D01*
%TO.C,CZ8*%
X130689088Y-43030000D02*
X130689088Y-46430000D01*
X130689088Y-46430000D02*
X132889088Y-46430000D01*
X131139088Y-43430000D02*
X132939088Y-43430000D01*
X131139088Y-44530000D02*
X131139088Y-43430000D01*
X131139088Y-44930000D02*
X132939088Y-44930000D01*
X131139088Y-46030000D02*
X131139088Y-44930000D01*
X132889088Y-46430000D02*
X133389088Y-45930000D01*
X132939088Y-43430000D02*
X132939088Y-44530000D01*
X132939088Y-44530000D02*
X131139088Y-44530000D01*
X132939088Y-44930000D02*
X132939088Y-46030000D01*
X132939088Y-46030000D02*
X131139088Y-46030000D01*
X133389088Y-43030000D02*
X130689088Y-43030000D01*
X133389088Y-45930000D02*
X133389088Y-43030000D01*
%TO.C,CZ12*%
X94980000Y-52430000D02*
X94980000Y-55830000D01*
X94980000Y-55830000D02*
X97180000Y-55830000D01*
X95430000Y-52830000D02*
X97230000Y-52830000D01*
X95430000Y-53930000D02*
X95430000Y-52830000D01*
X95430000Y-54330000D02*
X97230000Y-54330000D01*
X95430000Y-55430000D02*
X95430000Y-54330000D01*
X97180000Y-55830000D02*
X97680000Y-55330000D01*
X97230000Y-52830000D02*
X97230000Y-53930000D01*
X97230000Y-53930000D02*
X95430000Y-53930000D01*
X97230000Y-54330000D02*
X97230000Y-55430000D01*
X97230000Y-55430000D02*
X95430000Y-55430000D01*
X97680000Y-52430000D02*
X94980000Y-52430000D01*
X97680000Y-55330000D02*
X97680000Y-52430000D01*
%TO.C,CZ1*%
X193180000Y-52430000D02*
X193180000Y-55830000D01*
X193180000Y-55830000D02*
X195380000Y-55830000D01*
X193630000Y-52830000D02*
X195430000Y-52830000D01*
X193630000Y-53930000D02*
X193630000Y-52830000D01*
X193630000Y-54330000D02*
X195430000Y-54330000D01*
X193630000Y-55430000D02*
X193630000Y-54330000D01*
X195380000Y-55830000D02*
X195880000Y-55330000D01*
X195430000Y-52830000D02*
X195430000Y-53930000D01*
X195430000Y-53930000D02*
X193630000Y-53930000D01*
X195430000Y-54330000D02*
X195430000Y-55430000D01*
X195430000Y-55430000D02*
X193630000Y-55430000D01*
X195880000Y-52430000D02*
X193180000Y-52430000D01*
X195880000Y-55330000D02*
X195880000Y-52430000D01*
%TO.C,CZ7*%
X139616360Y-42630000D02*
X139616360Y-46030000D01*
X139616360Y-46030000D02*
X141816360Y-46030000D01*
X140066360Y-43030000D02*
X141866360Y-43030000D01*
X140066360Y-44130000D02*
X140066360Y-43030000D01*
X140066360Y-44530000D02*
X141866360Y-44530000D01*
X140066360Y-45630000D02*
X140066360Y-44530000D01*
X141816360Y-46030000D02*
X142316360Y-45530000D01*
X141866360Y-43030000D02*
X141866360Y-44130000D01*
X141866360Y-44130000D02*
X140066360Y-44130000D01*
X141866360Y-44530000D02*
X141866360Y-45630000D01*
X141866360Y-45630000D02*
X140066360Y-45630000D01*
X142316360Y-42630000D02*
X139616360Y-42630000D01*
X142316360Y-45530000D02*
X142316360Y-42630000D01*
%TO.C,CZ4*%
X166398176Y-44430000D02*
X166398176Y-47830000D01*
X166398176Y-47830000D02*
X168598176Y-47830000D01*
X166848176Y-44830000D02*
X168648176Y-44830000D01*
X166848176Y-45930000D02*
X166848176Y-44830000D01*
X166848176Y-46330000D02*
X168648176Y-46330000D01*
X166848176Y-47430000D02*
X166848176Y-46330000D01*
X168598176Y-47830000D02*
X169098176Y-47330000D01*
X168648176Y-44830000D02*
X168648176Y-45930000D01*
X168648176Y-45930000D02*
X166848176Y-45930000D01*
X168648176Y-46330000D02*
X168648176Y-47430000D01*
X168648176Y-47430000D02*
X166848176Y-47430000D01*
X169098176Y-44430000D02*
X166398176Y-44430000D01*
X169098176Y-47330000D02*
X169098176Y-44430000D01*
%TO.C,CZ3*%
X175325448Y-46030000D02*
X175325448Y-49430000D01*
X175325448Y-49430000D02*
X177525448Y-49430000D01*
X175775448Y-46430000D02*
X177575448Y-46430000D01*
X175775448Y-47530000D02*
X175775448Y-46430000D01*
X175775448Y-47930000D02*
X177575448Y-47930000D01*
X175775448Y-49030000D02*
X175775448Y-47930000D01*
X177525448Y-49430000D02*
X178025448Y-48930000D01*
X177575448Y-46430000D02*
X177575448Y-47530000D01*
X177575448Y-47530000D02*
X175775448Y-47530000D01*
X177575448Y-47930000D02*
X177575448Y-49030000D01*
X177575448Y-49030000D02*
X175775448Y-49030000D01*
X178025448Y-46030000D02*
X175325448Y-46030000D01*
X178025448Y-48930000D02*
X178025448Y-46030000D01*
%TO.C,CZ10*%
X112834544Y-46030000D02*
X112834544Y-49430000D01*
X112834544Y-49430000D02*
X115034544Y-49430000D01*
X113284544Y-46430000D02*
X115084544Y-46430000D01*
X113284544Y-47530000D02*
X113284544Y-46430000D01*
X113284544Y-47930000D02*
X115084544Y-47930000D01*
X113284544Y-49030000D02*
X113284544Y-47930000D01*
X115034544Y-49430000D02*
X115534544Y-48930000D01*
X115084544Y-46430000D02*
X115084544Y-47530000D01*
X115084544Y-47530000D02*
X113284544Y-47530000D01*
X115084544Y-47930000D02*
X115084544Y-49030000D01*
X115084544Y-49030000D02*
X113284544Y-49030000D01*
X115534544Y-46030000D02*
X112834544Y-46030000D01*
X115534544Y-48930000D02*
X115534544Y-46030000D01*
D12*
%TO.C,C2*%
X157490000Y-124896267D02*
X157490000Y-124603733D01*
X158510000Y-124896267D02*
X158510000Y-124603733D01*
D11*
%TO.C,C1*%
X153124400Y-122018800D02*
X153124400Y-125981200D01*
X156375600Y-125981200D02*
X156375600Y-122018800D01*
D10*
%TO.C,CZ5*%
X157470904Y-43030000D02*
X157470904Y-46430000D01*
X157470904Y-46430000D02*
X159670904Y-46430000D01*
X157920904Y-43430000D02*
X159720904Y-43430000D01*
X157920904Y-44530000D02*
X157920904Y-43430000D01*
X157920904Y-44930000D02*
X159720904Y-44930000D01*
X157920904Y-46030000D02*
X157920904Y-44930000D01*
X159670904Y-46430000D02*
X160170904Y-45930000D01*
X159720904Y-43430000D02*
X159720904Y-44530000D01*
X159720904Y-44530000D02*
X157920904Y-44530000D01*
X159720904Y-44930000D02*
X159720904Y-46030000D01*
X159720904Y-46030000D02*
X157920904Y-46030000D01*
X160170904Y-43030000D02*
X157470904Y-43030000D01*
X160170904Y-45930000D02*
X160170904Y-43030000D01*
%TD*%
M02*
